Coordinates
version=1
nRows=17
nColumns=33
inDegrees=yes

Units are S.I. units (second, meters, Newtons, ...)
Angles are in degrees.

endheader
time	ground_thorax_rot_x	ground_thorax_rot_y	ground_thorax_rot_z	ground_thorax_tx	ground_thorax_ty	ground_thorax_tz	clav_prot_r	clav_elev_r	scapula_abduction_r	scapula_elevation_r	scapula_upward_rot_r	scapula_winging_r	shoulder_elv_r	plane_of_elev_r	axial_rot_r	elbow_flexion_r	pro_sup_r	wrist_flex_r	wrist_dev_r	clav_prot_l	clav_elev_l	scapula_abduction_l	scapula_elevation_l	scapula_upward_rot_l	scapula_winging_l	shoulder_elv_l	plane_of_elev_l	axial_rot_l	elbow_flexion_l	pro_sup_l	wrist_flex_l	wrist_dev_l	
9.9200	-35.231040	-3.345344	15.268515	-100.588485	772.025646	5.384712	1.687907	-45.000000	45.000000	-45.000000	-6.454984	-1538.432295	-2637.803787	151.826166	-108.724936	1087.947836	23.387513	16.632188	12.461769	18.690165	38.698896	-43.499687	-41.374937	-36.472396	2238.423771	-4252.615156	26.326744	-27.723045	729.481011	17.394241	9.494385	-18.269192	
9.9300	-35.357772	-3.424756	14.994124	-97.610465	771.038182	5.352799	1.796299	-45.000000	45.000000	-45.000000	-6.405693	-1538.175271	-2637.890535	151.778056	-109.250929	1087.932957	23.609972	16.650034	12.386295	18.888748	38.530873	-43.884659	-40.913502	-36.000200	2238.553365	-4252.708707	26.168542	-28.156139	729.282865	18.458167	9.380659	-18.353946	
9.9400	-35.418314	-3.826221	15.036218	-94.681580	770.091509	5.329505	2.089365	-45.000000	45.000000	-45.000000	-6.911854	-1537.920481	-2637.988549	151.671595	-109.774013	1087.922095	23.769242	16.666490	12.268827	18.923172	38.296052	-44.069068	-40.547070	-35.831473	2238.690352	-4252.850403	26.112058	-28.733531	729.054316	19.491808	9.236388	-18.421176	
9.9500	-35.545527	-3.932665	14.760601	-91.851894	769.230651	5.323218	2.138050	-45.000000	45.000000	-45.000000	-6.800213	-1537.702553	-2638.094360	151.620821	-110.181146	1087.913476	23.940356	16.669369	12.179010	18.956817	38.165767	-44.373216	-40.108906	-35.282765	2238.856265	-4252.982945	25.990017	-29.273567	728.865463	20.610254	9.093908	-18.446612	
9.9600	-35.681997	-4.020851	14.447068	-89.134971	768.463952	5.336708	2.131370	-45.000000	45.000000	-45.000000	-6.590531	-1537.510251	-2638.214443	151.573537	-110.527943	1087.907741	24.073481	16.662912	12.089999	18.908661	38.073737	-44.633269	-39.685861	-34.665433	2239.014481	-4253.109712	25.873831	-29.833330	728.689336	21.735154	8.945014	-18.440250	
9.9700	-35.827760	-4.072509	14.064398	-86.550720	767.805597	5.373734	2.047939	-45.000000	45.000000	-45.000000	-6.238981	-1537.320311	-2638.338376	151.544909	-110.824023	1087.906379	24.164219	16.652007	12.015484	18.814683	38.015988	-44.836484	-39.285678	-33.938147	2239.144510	-4253.230577	25.755445	-30.395932	728.519219	22.861991	8.793757	-18.409376	
9.9800	-35.972423	-4.123926	13.647025	-84.108361	767.259342	5.436216	1.909109	-45.000000	45.000000	-45.000000	-5.822541	-1537.114408	-2638.459846	151.535697	-111.097958	1087.910195	24.207797	16.641708	11.958421	18.709947	37.978448	-44.958371	-38.923530	-33.146039	2239.222565	-4253.333867	25.633813	-30.936374	728.347456	23.966244	8.646160	-18.367971	
9.9900	-36.098421	-4.244242	13.283244	-81.811489	766.823524	5.524854	1.799312	-45.000000	45.000000	-45.000000	-5.501399	-1536.902037	-2638.575785	151.522844	-111.363388	1087.921504	24.207016	16.635676	11.909768	18.583831	37.925390	-44.993282	-38.618096	-32.426246	2239.259495	-4253.427202	25.540811	-31.450486	728.171628	25.012373	8.500945	-18.322850	
10.0000	-36.221289	-4.353251	12.896442	-79.662639	766.495103	5.639570	1.665183	-45.000000	45.000000	-45.000000	-5.143144	-1536.674529	-2638.679821	151.527039	-111.625312	1087.939612	24.185410	16.635839	11.881262	18.492574	37.881059	-45.000000	-38.343707	-31.705586	2239.253821	-4253.492881	25.439651	-31.882166	728.000243	25.993063	8.369182	-18.281421	
10.0100	-36.335819	-4.457568	12.511902	-77.663507	766.269263	5.779464	1.533541	-45.000000	45.000000	-45.000000	-4.782749	-1536.449321	-2638.770914	151.535242	-111.866217	1087.965636	24.158436	16.641421	11.861352	18.422600	37.835469	-45.000000	-38.097705	-31.025212	2239.231710	-4253.546923	25.346516	-32.236888	727.837113	26.896333	8.249177	-18.241195	
10.0200	-36.441199	-4.570490	12.151786	-75.815203	766.139068	5.942744	1.415478	-45.000000	45.000000	-45.000000	-4.457412	-1536.233107	-2638.855879	151.542129	-112.084758	1087.999084	24.133529	16.651082	11.842899	18.360482	37.797371	-45.000000	-37.878691	-30.413912	2239.196350	-4253.583903	25.256838	-32.508541	727.684453	27.702653	8.144614	-18.202248	
10.0300	-36.529558	-4.726921	11.875853	-74.118073	766.095318	6.126805	1.366222	-45.000000	45.000000	-45.000000	-4.260011	-1536.055840	-2638.943618	151.523325	-112.268900	1088.039009	24.113339	16.661422	11.809899	18.261097	37.755319	-45.000000	-37.693113	-29.958320	2239.163587	-4253.610545	25.200146	-32.706897	727.547842	28.380544	8.055322	-18.159882	
10.0400	-36.613007	-4.891584	11.628196	-72.572047	766.126815	6.328407	1.326683	-45.000000	45.000000	-45.000000	-4.101775	-1535.881374	-2639.027253	151.511666	-112.420492	1088.090998	24.101248	16.677050	11.776955	18.150747	37.731404	-45.000000	-37.540677	-29.560997	2239.102063	-4253.617908	25.122458	-32.815895	727.423367	28.932521	7.989599	-18.121123	
10.0500	-36.690990	-5.028971	11.380625	-71.176028	766.220801	6.544043	1.275301	-45.000000	45.000000	-45.000000	-3.921965	-1535.717283	-2639.104169	151.507452	-112.533106	1088.147934	24.099920	16.696070	11.744338	18.054502	37.719004	-45.000000	-37.407013	-29.175458	2239.035202	-4253.624413	25.056189	-32.845399	727.309186	29.370715	7.945793	-18.085451	
10.0600	-36.766610	-5.124383	11.111655	-69.928112	766.363668	6.770225	1.190402	-45.000000	45.000000	-45.000000	-3.683808	-1535.552560	-2639.172888	151.522200	-112.609089	1088.209910	24.109688	16.719729	11.718000	17.984913	37.719654	-45.000000	-37.286210	-28.762679	2238.961389	-4253.633217	24.992091	-32.802697	727.202467	29.711142	7.923277	-18.056251	
10.0700	-36.833298	-5.191432	10.852369	-68.825083	766.541696	7.003815	1.101609	-45.000000	45.000000	-45.000000	-3.430208	-1535.408725	-2639.234912	151.538334	-112.649005	1088.268712	24.129969	16.744492	11.690498	17.933169	37.715722	-45.000000	-37.175381	-28.366742	2238.910540	-4253.660036	24.973225	-32.705864	727.104292	29.954661	7.915730	-18.029545	
10.0800	-36.895687	-5.224136	10.582954	-67.862612	766.741852	7.242159	0.989439	-45.000000	45.000000	-45.000000	-3.135573	-1535.270987	-2639.289074	151.565683	-112.656660	1088.326363	24.162234	16.770921	11.666367	17.896739	37.716357	-45.000000	-37.075842	-27.952956	2238.859801	-4253.693910	24.962170	-32.566470	727.010574	30.117663	7.924418	-18.009604	
